<?xml version="1.0" encoding="utf-8"?>
<!-- Generator: Adobe Illustrator 16.0.0, SVG Export Plug-In . SVG Version: 6.00 Build 0)  -->
<!DOCTYPE svg PUBLIC "-//W3C//DTD SVG 1.1//EN" "http://www.w3.org/Graphics/SVG/1.1/DTD/svg11.dtd">
<svg version="1.1" id="Ebene_1" xmlns="http://www.w3.org/2000/svg" xmlns:xlink="http://www.w3.org/1999/xlink" x="0px" y="0px"
	 width="320px" height="320px" viewBox="0 0 320 320" enable-background="new 0 0 320 320" xml:space="preserve">
<rect fill="#3B5998" width="320" height="320"/>
<path fill="#FFFFFF" d="M20,20v280h280V20H20z M40,40h240v240H40V40z"/>
<path fill="#FFFFFF" d="M120,60h140v40H120V60z"/>
<path fill="#FF8700" d="M60,60h40v40H60V60z"/>
<path fill="#FFFFFF" d="M120,120h140v20H120V120z"/>
<path fill="#FF8700" d="M80,120h20v20H80V120z"/>
<path fill="#FFFFFF" d="M160,160h100v20H160V160z"/>
<path fill="#FF8700" d="M120,160h20v20h-20V160z"/>
<path fill="#FFFFFF" d="M160,200h100v20H160V200z"/>
<path fill="#FF8700" d="M120,200h20v20h-20V200z"/>
<path fill="#FFFFFF" d="M160,240h100v20H160V240z"/>
<path fill="#FF8700" d="M120,240h20v20h-20V240z"/>
</svg>
