<?xml version="1.0" encoding="utf-8"?>
<!-- Generator: Adobe Illustrator 16.0.0, SVG Export Plug-In . SVG Version: 6.00 Build 0)  -->
<!DOCTYPE svg PUBLIC "-//W3C//DTD SVG 1.1//EN" "http://www.w3.org/Graphics/SVG/1.1/DTD/svg11.dtd">
<svg version="1.1" id="Ebene_1" xmlns="http://www.w3.org/2000/svg" xmlns:xlink="http://www.w3.org/1999/xlink" x="0px" y="0px"
	 width="320px" height="320px" viewBox="0 0 320 320" enable-background="new 0 0 320 320" xml:space="preserve">
<rect fill="#3B5998" width="320" height="320"/>
<g>
	<path fill="#FFFFFF" d="M101.801,247.799c0,13.354-3.156,23.721-9.468,31.104c-6.312,7.383-15.073,11.074-26.284,11.074
		c-11.166,0-19.938-3.656-26.318-10.971c-6.381-7.314-9.616-17.557-9.707-30.729v-17.021c0-13.672,3.167-24.346,9.502-32.025
		c6.334-7.68,15.13-11.52,26.387-11.52c11.074,0,19.801,3.771,26.182,11.314c6.38,7.543,9.615,18.127,9.707,31.752V247.799z
		 M81.635,231.119c0-8.977-1.276-15.654-3.828-20.029c-2.553-4.375-6.518-6.562-11.895-6.562c-5.332,0-9.274,2.109-11.826,6.324
		c-2.553,4.215-3.874,10.629-3.965,19.242v17.705c0,8.705,1.299,15.119,3.896,19.244s6.607,6.186,12.031,6.186
		c5.24,0,9.137-2.016,11.689-6.049c2.552-4.033,3.851-10.289,3.896-18.766V231.119z"/>
	<path fill="#FFFFFF" d="M158.266,262.496c0-4.055-1.037-7.119-3.11-9.193c-2.074-2.074-5.845-4.227-11.313-6.461
		c-9.98-3.781-17.158-8.213-21.533-13.295s-6.562-11.086-6.562-18.014c0-8.385,2.974-15.117,8.921-20.199s13.501-7.623,22.661-7.623
		c6.106,0,11.553,1.289,16.338,3.863s8.465,6.209,11.04,10.902c2.574,4.695,3.862,10.027,3.862,15.996h-20.029
		c0-4.648-0.991-8.191-2.974-10.629s-4.843-3.658-8.579-3.658c-3.51,0-6.244,1.037-8.203,3.111c-1.96,2.074-2.939,4.865-2.939,8.373
		c0,2.734,1.094,5.207,3.281,7.418s6.061,4.5,11.621,6.869c9.707,3.51,16.759,7.816,21.157,12.92
		c4.397,5.105,6.597,11.6,6.597,19.482c0,8.66-2.758,15.428-8.271,20.303c-5.515,4.877-13.012,7.314-22.49,7.314
		c-6.426,0-12.282-1.322-17.568-3.965c-5.287-2.643-9.423-6.426-12.407-11.348c-2.985-4.922-4.478-10.732-4.478-17.432h20.166
		c0,5.742,1.116,9.912,3.35,12.51c2.232,2.598,5.879,3.896,10.938,3.896C154.756,273.639,158.266,269.926,158.266,262.496z"/>
	<path fill="#FFFFFF" d="M211.928,253.609v35H191.83v-99.531h33.906c9.844,0,17.693,3.055,23.55,9.16
		c5.855,6.107,8.784,14.037,8.784,23.789c0,9.754-2.895,17.455-8.682,23.105c-5.788,5.652-13.809,8.477-24.062,8.477H211.928z
		 M211.928,236.861h13.809c3.828,0,6.79-1.252,8.887-3.76c2.096-2.506,3.145-6.152,3.145-10.938c0-4.967-1.071-8.92-3.213-11.859
		c-2.143-2.939-5.014-4.432-8.613-4.479h-14.014V236.861z"/>
</g>
</svg>
