<?xml version="1.0" encoding="utf-8"?>
<!-- Generator: Adobe Illustrator 16.0.0, SVG Export Plug-In . SVG Version: 6.00 Build 0)  -->
<!DOCTYPE svg PUBLIC "-//W3C//DTD SVG 1.1//EN" "http://www.w3.org/Graphics/SVG/1.1/DTD/svg11.dtd">
<svg version="1.1" id="Ebene_1" xmlns="http://www.w3.org/2000/svg" xmlns:xlink="http://www.w3.org/1999/xlink" x="0px" y="0px"
	 width="86px" height="128px" viewBox="0 0 86 128" enable-background="new 0 0 86 128" xml:space="preserve">
<path fill="#FFFFFF" d="M0,0h86v128H0V0z"/>
<rect x="64" y="49.508" fill="#000033" width="20" height="48.492"/>
<rect x="2" y="49.508" fill="#000033" width="20" height="48.492"/>
<rect x="2" y="110" fill="#000033" width="26" height="16"/>
<rect x="30" y="110" fill="#000033" width="26" height="16"/>
<rect x="58" y="110" fill="#000033" width="26" height="16"/>
<rect x="24" y="49.508" fill="#000033" width="38" height="48.492"/>
<rect x="2" y="12.008" fill="#333333" width="82" height="25.497"/>
<rect x="2" y="100" fill="#000033" width="82" height="8"/>
<rect x="2" y="39.506" fill="#000033" width="82" height="8"/>
<circle fill="#FFFFFF" cx="14.917" cy="24.756" r="7.083"/>
<rect x="24" y="21.509" fill="#FFFFFF" width="20.834" height="3.333"/>
<rect x="24" y="26.677" fill="#FFFFFF" width="17.461" height="1.667"/>
<rect x="2" y="2" fill="#336699" width="82" height="8"/>
</svg>
